<?xml version="1.0" encoding="utf-8"?>
<!-- Generator: Adobe Illustrator 22.1.0, SVG Export Plug-In . SVG Version: 6.00 Build 0)  -->
<svg version="1.1"
	 id="svg8" inkscape:version="0.92.1 r15371" sodipodi:docname="Logotipo_del_Gobierno_de_Canarias.svg" xmlns:cc="http://creativecommons.org/ns#" xmlns:dc="http://purl.org/dc/elements/1.1/" xmlns:inkscape="http://www.inkscape.org/namespaces/inkscape" xmlns:rdf="http://www.w3.org/1999/02/22-rdf-syntax-ns#" xmlns:sodipodi="http://sodipodi.sourceforge.net/DTD/sodipodi-0.dtd" xmlns:svg="http://www.w3.org/2000/svg"
	 xmlns="http://www.w3.org/2000/svg" xmlns:xlink="http://www.w3.org/1999/xlink" x="0px" y="0px" viewBox="0 0 379 628"
	 style="enable-background:new 0 0 379 628;" xml:space="preserve">
<style type="text/css">
	.st0{fill:#DA291C;}
	.st1{fill-rule:evenodd;clip-rule:evenodd;fill:#DA291C;}
	.st2{fill:#FFFFFF;}
</style>
<sodipodi:namedview  bordercolor="#666666" borderopacity="1.0" fit-margin-bottom="0" fit-margin-left="0" fit-margin-right="0" fit-margin-top="0" id="base" inkscape:current-layer="layer1" inkscape:cx="259.8137" inkscape:cy="404.12897" inkscape:document-units="mm" inkscape:pageopacity="0.0" inkscape:pageshadow="2" inkscape:window-height="705" inkscape:window-maximized="1" inkscape:window-width="1366" inkscape:window-x="-8" inkscape:window-y="-8" inkscape:zoom="0.35" pagecolor="#ffffff" showgrid="false">
	</sodipodi:namedview>
<g id="layer1" transform="translate(59.292969,-134.13374)" inkscape:groupmode="layer" inkscape:label="Layer 1">
	<g>
		<g>
			<path class="st0" d="M132.779,157.657l0.007-16.689c8.773,1.029,15.742,7.946,16.897,16.689H132.779L132.779,157.657
				L132.779,157.657z"/>
			<path class="st0" d="M132.779,162.554h16.89h0.045c-1.066,8.84-8.08,15.861-16.927,16.897L132.779,162.554L132.779,162.554
				L132.779,162.554z"/>
			<path class="st1" d="M128.053,179.451c-8.81-1.103-15.772-8.087-16.83-16.897h0.03h16.801V179.451L128.053,179.451
				L128.053,179.451z"/>
			<path class="st1" d="M128.053,157.657h-16.801l0,0c1.14-8.713,8.065-15.601,16.801-16.689V157.657L128.053,157.657
				L128.053,157.657z"/>
			<path class="st0" d="M235.244,343.268c-33.623-9.63-68.902-15.034-105.581-15.034c-35.986,0-70.787,5.158-103.71,14.579l0,0
				l-7.767-27.765h-0.239c35.517-10.331,72.904-15.757,111.716-15.757c39.504,0,77.593,5.657,113.579,16.227l0,0L235.244,343.268
				L235.244,343.268L235.244,343.268L235.244,343.268z"/>
			<path class="st0" d="M115.546,291.763c4.703-0.231,9.175,0,13.64,0c5.411,0,10.823,0,16.227,0.246V185.72
				c-4.703-0.947-9.876-1.662-15.049-1.662c-5.173,0-10.115,0.47-14.818,1.424V291.763L115.546,291.763L115.546,291.763z"/>
			<path class="st0" d="M103.083,292.479c-11.747,0.947-23.509,2.124-35.047,3.764l0,0c-7.044-11.292-11.046-24.455-11.046-38.811
				c0-33.385,22.331-61.605,52.906-70.534v31.037c-14.341,7.282-23.978,22.339-23.978,39.497
				C85.917,271.787,92.737,284.496,103.083,292.479L103.083,292.479L103.083,292.479z"/>
			<path class="st0" d="M61.693,217.234C55.812,214.64,49.476,213,42.649,213c-24.463,0-44.215,19.991-44.215,44.431
				c0,23.054,17.635,42.106,40.444,44.223l0,0c-14.572,3.063-28.92,7.282-43.023,11.993l0,0
				c-16.234-13.409-26.341-33.631-26.341-56.216c0-40.444,32.684-73.374,73.135-73.374c14.11,0,27.273,4.01,38.565,11.069l0,0
				C73.216,201.231,66.635,208.759,61.693,217.234L61.693,217.234L61.693,217.234L61.693,217.234z"/>
			<path class="st0" d="M158.114,292.479c11.754,0.947,23.509,2.124,35.04,3.764l0,0c7.051-11.292,11.285-24.455,11.285-38.811
				c0-33.385-22.339-61.605-53.145-70.534v31.037c14.341,7.282,24.217,22.339,24.217,39.497
				C175.51,271.787,168.69,284.496,158.114,292.479L158.114,292.479L158.114,292.479z"/>
			<path class="st0" d="M199.742,217.234c5.635-2.594,11.985-4.234,18.813-4.234c24.448,0,44.439,19.991,44.439,44.431
				c0,23.054-17.874,42.106-40.451,44.223h-0.231c14.579,3.063,29.159,7.282,43.037,11.993h0.239
				c15.981-13.409,26.334-33.631,26.334-56.216c0-40.444-32.923-73.374-73.366-73.374c-14.117,0-27.288,4.01-38.573,11.069l0,0
				C187.98,201.231,194.569,208.759,199.742,217.234L199.742,217.234L199.742,217.234L199.742,217.234z"/>
			<path class="st1" d="M130.088,755.299L-8.409,729.212c-22.108-3.309-39.027-21.407-39.027-44.677V351.571H307.85v332.963
				c0,23.27-16.927,41.368-39.027,44.677L130.088,755.299L130.088,755.299L130.088,755.299L130.088,755.299z"/>
			<polygon class="st2" points="114.592,538.055 129.767,522.887 144.95,538.055 129.767,553.245 114.592,538.055 114.592,538.055 
							"/>
			<path class="st2" d="M292.988,537.913c0-15.407-10.167-28.466-24.15-32.819v-72.479c13.983-4.338,24.15-17.389,24.15-32.804
				c0-18.962-15.384-34.361-34.346-34.361c-15.705,0-28.972,10.547-33.035,24.977h-62.767c-4.092-14.43-17.36-24.977-33.057-24.977
				s-28.965,10.547-33.027,24.977H33.734C29.65,375.997,16.382,365.45,0.67,365.45c-18.962,0-34.347,15.399-34.347,34.361
				c0,15.444,10.167,28.495,24.202,32.833v72.435c-14.035,4.338-24.202,17.397-24.202,32.833c0,15.444,10.167,28.495,24.202,32.833
				v73.046c-14.035,4.345-24.202,17.382-24.202,32.841c0,18.962,15.384,34.361,34.347,34.361c13.953,0,25.961-8.333,31.343-20.311
				l63.453,12.351c0.537,18.493,15.683,33.318,34.317,33.318s33.795-14.855,34.332-33.348l63.192-12.291
				c5.382,11.948,17.382,20.281,31.335,20.281c18.962,0,34.346-15.399,34.346-34.361c0-15.414-10.167-28.466-24.15-32.819v-73.098
				C282.821,566.379,292.988,553.327,292.988,537.913L292.988,537.913z M259.148,383.883c8.818,0,15.973,7.156,15.973,15.988
				c0,8.818-7.156,15.973-15.973,15.973c-8.833,0-15.988-7.156-15.988-15.973C243.16,391.039,250.315,383.883,259.148,383.883
				L259.148,383.883z M242.034,429.91c2.43,1.334,5.046,2.408,7.782,3.138v71.637c-11.672,3.108-20.945,12.231-24.21,23.844h-61.359
				c-0.924-3.757-2.445-7.245-4.45-10.42L242.034,429.91L242.034,429.91z M162.757,409.449h62.909
				c0.701,2.46,1.685,4.785,2.907,6.992l-82.81,88.788c-2.087-1.073-4.286-1.945-6.567-2.609v-69.751
				C150.518,429.649,159.448,420.749,162.757,409.449L162.757,409.449z M146.501,537.973c0,9.257-7.506,16.756-16.771,16.756
				s-16.778-7.498-16.778-16.756c0-9.28,7.513-16.793,16.778-16.793S146.501,528.693,146.501,537.973L146.501,537.973z
				 M129.73,383.883c8.818,0,15.988,7.156,15.988,15.988c0,8.818-7.17,15.973-15.988,15.973c-8.825,0-15.981-7.156-15.981-15.973
				C113.749,391.039,120.905,383.883,129.73,383.883L129.73,383.883z M33.652,409.449h63.155
				c3.265,11.24,12.149,20.088,23.375,23.337v69.669c-2.773,0.738-5.411,1.804-7.871,3.131l-82.184-88.102
				C31.617,414.995,32.795,412.297,33.652,409.449L33.652,409.449z M98.536,518.75c-1.804,3.011-3.168,6.283-4.04,9.779H33.734
				c-3.295-11.613-12.507-20.691-24.18-23.814v-71.697c2.34-0.634,4.562-1.491,6.649-2.564L98.536,518.75L98.536,518.75z
				 M-15.669,399.871c0-8.833,7.156-15.988,15.996-15.988c8.81,0,15.966,7.156,15.966,15.988c0,8.818-7.156,15.973-15.966,15.973
				C-8.513,415.844-15.669,408.689-15.669,399.871L-15.669,399.871z M-15.669,537.973c0-8.833,7.156-15.988,15.996-15.988
				c8.81,0,15.966,7.156,15.966,15.988c0,8.818-7.156,15.973-15.966,15.973C-8.513,553.946-15.669,546.791-15.669,537.973
				L-15.669,537.973z M0.327,692.83c-8.84,0-15.996-7.156-15.996-15.973c0-8.81,7.156-15.981,15.996-15.981
				c8.81,0,15.966,7.17,15.966,15.981C16.293,685.675,9.137,692.83,0.327,692.83L0.327,692.83z M15.1,645.462
				c-1.774-0.82-3.6-1.506-5.546-2.027v-72.315c11.583-3.108,20.736-12.097,24.098-23.568h61.277
				c0.894,2.959,2.132,5.747,3.712,8.311L15.1,645.462L15.1,645.462z M100.161,684.579l-65.466-12.716
				c-0.708-5.091-2.542-9.824-5.21-13.953l82.974-88.997c2.415,1.327,5.009,2.348,7.722,3.071v97.032
				C111.685,671.475,104.559,677.103,100.161,684.579L100.161,684.579z M129.73,718.59c-8.825,0-15.981-7.141-15.981-15.973
				c0-8.81,7.156-15.966,15.981-15.966c8.818,0,15.988,7.156,15.988,15.966C145.718,711.449,138.548,718.59,129.73,718.59
				L129.73,718.59z M224.623,671.863l-65.249,12.686c-4.427-7.498-11.643-13.171-20.177-15.593V571.82
				c2.281-0.648,4.45-1.506,6.522-2.564l83.526,89.563C226.874,662.74,225.264,667.13,224.623,671.863L224.623,671.863z
				 M159.768,556.436c1.722-2.75,3.093-5.695,4.062-8.885h61.836c3.347,11.501,12.567,20.49,24.15,23.598v72.256
				c-2.311,0.611-4.509,1.461-6.589,2.534L159.768,556.436L159.768,556.436z M275.114,676.857c0,8.833-7.148,15.988-15.981,15.988
				c-8.818,0-15.973-7.156-15.973-15.988c0-8.81,7.156-15.966,15.973-15.966C267.966,660.891,275.114,668.047,275.114,676.857
				L275.114,676.857z M259.148,553.946c-8.833,0-15.988-7.156-15.988-15.973c0-8.833,7.156-15.988,15.988-15.988
				c8.818,0,15.973,7.156,15.973,15.988C275.121,546.791,267.966,553.946,259.148,553.946L259.148,553.946z"/>
		</g>
	</g>
</g>
</svg>
